<?xml version="1.0" encoding="UTF-8" standalone="no"?>
<svg
   viewBox="0 0 980 980"
   version="1.1" >
  <g>
    <path
        d="M 490,0 C 360.06326,0 235.39673,51.638428 143.51758,143.51758 51.638428,235.39673 0,360.06326 0,490 0,619.93674 51.638428,744.60327 143.51758,836.48242 235.39673,928.36157 360.06326,980 490,980 619.93674,980 744.60327,928.36157 836.48242,836.48242 928.36157,744.60327 980,619.93674 980,490 980,360.06326 928.36157,235.39673 836.48242,143.51758 744.60327,51.638428 619.93674,0 490,0 Z m 0,100 c 103.45354,0 202.61879,41.07582 275.77148,114.22852 C 838.92418,287.38121 880,386.54646 880,490 880,593.45354 838.92418,692.61879 765.77148,765.77148 692.61879,838.92418 593.45354,880 490,880 386.54646,880 287.38121,838.92418 214.22852,765.77148 141.07582,692.61879 100,593.45354 100,490 100,386.54646 141.07582,287.38121 214.22852,214.22852 287.38121,141.07582 386.54646,100 490,100 Z" />
    <path d="M219,428H350a150,150 0 1 1 0,125H219a275,275 0 1 0 0-125z"/>
  </g>
</svg>
