<?xml version="1.0" encoding="UTF-8"?>
<svg role="img" ariaLabeledby='github-icon' width="128px" height="128px" version="1.1" viewBox="0 0 383.61 377.57" xmlns="http://www.w3.org/2000/svg" xmlnscc="http://creativecommons.org/ns#" xmlnsdc="http://purl.org/dc/elements/1.1/" xmlnsrdf="http://www.w3.org/1999/02/22-rdf-syntax-ns#">

 <title id='github-icon'>Github Icon</title>
 
 <g transform="translate(-242.56 -72.961)">
  <path d="m378.9 448.35c-9.8165-2.854-27.58-10.237-36.422-15.138-68.831-38.152-107.67-113.11-98.613-190.34 13.001-110.92 117.62-187.59 227.04-166.37 92.537 17.946 158.65 100.99 155.14 194.88-1.732 46.38-17.848 86.171-49.56 122.37-17.051 19.462-48.059 40.751-72.764 49.956l-5.1832 1.9312-0.351-29.129c-0.34359-28.514-0.40778-29.297-3.0413-37.129-1.4796-4.4-4.3893-10.892-6.4658-14.427-4.2379-7.2136-12.746-16.917-16.679-19.022-1.4281-0.76431-2.5966-1.6641-2.5966-1.9996s3.9375-1.1491 8.75-1.8081c36.851-5.0461 64.925-22.146 76.742-46.744 5.3366-11.109 6.8794-18.325 6.9479-32.5 0.0945-19.534-4.0065-30.421-19.187-50.939-1.0116-1.3673-0.87032-3.3754 0.74759-10.624 5.6253-25.201 2.5951-47.33-6.6054-48.238-10.735-1.0595-30.647 7.2668-41.131 17.199l-6.56 6.215-7.7937-2.2574c-23.995-6.95-53.825-6.95-77.82 0l-7.7937 2.2574-6.56-6.215c-10.416-9.8681-27.957-17.321-40.913-17.382-3.4869-0.0165-3.822 0.27904-6.5 5.7326-2.6938 5.4857-2.8194 6.3704-2.733 19.25 0.0668 9.9591 0.65362 15.964 2.2373 22.895l2.1467 9.3948-4.9442 6.6694c-6.5634 8.8535-12.667 21.803-14.631 31.041-2.1526 10.125-1.4172 26.866 1.6033 36.5 9.6214 30.687 36.329 50.258 77.997 57.155 12.87 2.13 12.81 2.1057 9.9227 4.0295-7.1505 4.7649-16.02 15.761-20.035 24.838-1.7788 4.0213-2.2985 4.4226-6.6583 5.1415-2.6009 0.42883-11.254 0.79248-19.229 0.80811-17.522 0.0343-20.015-0.93678-27.926-10.878-9.2289-11.598-21.328-20.593-27.699-20.593-2.1231 0-5.3751 2.3326-5.3751 3.8556 0 0.392 2.5001 3.1724 5.5558 6.1786 6.7778 6.6681 10.085 12.359 14.937 25.707 4.551 12.519 7.9534 17.78 14.211 21.972 7.186 4.8148 14.431 6.2863 30.949 6.2863h14.233l0.30719 20.75c0.16896 11.412 0.30719 20.817 0.30719 20.899 0 0.0818-3.6-0.89785-8-2.1771z"/>
 </g>
</svg>
