<?xml version="1.0" encoding="UTF-8"?>
<svg role="img" aria-labelledby='linkedin-icon' width="351" height="351.23" version="1.1" viewBox="0 0 351 351.23" xmlns="http://www.w3.org/2000/svg" xmlnscc="http://creativecommons.org/ns#" xmlnsdc="http://purl.org/dc/elements/1.1/" xmlnsrdf="http://www.w3.org/1999/02/22-rdf-syntax-ns#">

<title id='linkedin-icon'>LinkedIn Icon</title>
 
 <g transform="translate(-90.971 -53.912)">
  <path d="m113.76 403.97c-9.7852-3.0735-15.307-7.8202-20.422-17.556l-2.3642-4.5v-305l3.4167-6.3014c3.795-6.999 6.9098-10.012 14.476-14.004l5.1074-2.6946h305l6.3014 3.4167c7.2648 3.9391 10.478 7.3743 14.108 15.083l2.5902 5.5v303l-2.6198 5.5865c-3.33 7.101-8.6927 12.464-15.794 15.794l-5.5865 2.6198-150 0.18971c-122.07 0.15439-150.78-0.0568-154.21-1.1338zm87.714-138.56v-76h-47v152h47zm77.237 30.75c0.40068-49.673 0.55114-51.016 6.6636-59.454 4.495-6.2052 10.71-8.7964 21.1-8.7964 9.7868 0 14.844 2.1401 18.841 7.9725 5.3538 7.8133 5.5198 9.4746 5.9248 59.277l0.37613 46.25h46.858l-6e-3 -48.75c-6e-3 -51.935-0.64318-61.335-5.0405-74.388-3.0181-8.9591-6.2524-13.998-12.989-20.234-8.909-8.2481-19.567-11.747-36.465-11.969-11.805-0.1555-18.564 1.3222-27.682 6.0514-6.1629 3.1967-15.256 11.463-18.51 16.826-0.97141 1.6013-1.202-0.0199-1.25-8.7864l-0.0587-10.75h-45v152h46.872zm-92.001-129.94c5.2709-1.5792 13.058-8.7207 15.892-14.574 3.0162-6.2306 3.0952-15.829 0.18371-22.326-4.5414-10.135-14.176-16.312-25.311-16.23-7.6714 0.0567-12.437 1.9159-18.179 7.0923-14.523 13.092-10.712 37.06 7.1792 45.149 5.1611 2.3335 14.104 2.7267 20.236 0.88974z"/>
 </g>
</svg>
