<?xml version="1.0" encoding="UTF-8"?>
<svg role="img" aria-labelledby='twitter-icon' width="128px" height="128px" version="1.1" viewBox="0 0 413.46 336.96" xmlns="http://www.w3.org/2000/svg" xmlnscc="http://creativecommons.org/ns#" xmlnsdc="http://purl.org/dc/elements/1.1/" xmlnsrdf="http://www.w3.org/1999/02/22-rdf-syntax-ns#">

<title id='twitter-icon'>Twitter Icon</title>
 
 <g transform="translate(-142.5 -86.449)">
  <path d="m248.69 422.73c-35.231-3.6527-71.632-15.622-100.63-33.09l-5.5613-3.3501 18.595-0.0301c24.096-0.039 41.44-3.0877 61.827-10.868 14.278-5.4486 33.279-15.922 41.768-23.021l3-2.509-3.662-0.036c-11.345-0.11137-29.807-6.0794-40.838-13.201-8.9121-5.7539-21.776-18.925-26.888-27.529-3.8733-6.5197-8.6147-17.198-7.9049-17.802 0.16112-0.13728 3.4429 0.15868 7.2929 0.65768 6.9334 0.89865 25.409-0.45051 28.296-2.0663 0.80931-0.45291-1.0899-1.4042-4.9411-2.4749-29.251-8.1324-52.971-34.074-59.275-64.827-0.86904-4.2393-1.5801-9.9532-1.5801-12.697v-4.9896l6.25 2.9246c7.7926 3.6464 20.603 6.9805 26.66 6.9387l4.59-0.0317-3-2.1392c-1.65-1.1766-5.7217-4.8748-9.0482-8.2183-24.924-25.051-31.533-61.1-17.418-95.005 1.7343-4.166 3.4488-7.5713 3.81-7.5674 0.36118 4e-3 2.9067 2.7533 5.6567 6.1097 7.61 9.288 23.55 24.054 36.431 33.747 37.285 28.057 79.745 44.26 127.3 48.577l6.7302 0.61099-0.73017-3.2758c-0.40159-1.8017-0.71841-9.5758-0.70405-17.276 0.031-16.602 1.9558-24.807 9.0347-38.513 10.644-20.61 28.963-35.633 51.939-42.597 8.0214-2.4312 10.577-2.7278 23.5-2.7278 12.938 0 15.47 0.2946 23.5 2.7348 11.764 3.5748 22.541 9.3974 31.883 17.227l7.5507 6.3279 9.2831-2.3596c11.332-2.8804 25.547-8.2998 35.634-13.585 4.1464-2.1727 7.7342-3.755 7.9729-3.5162 0.74565 0.74564-6.476 15.11-10.658 21.201-4.4225 6.44-15.49 17.566-21.665 21.78l-4 2.7296 5.5-0.65751c7.5625-0.90406 23.477-5.0088 33.254-8.5767 4.4711-1.6317 8.2969-2.9668 8.5017-2.9668 0.20486 0-1.5688 2.7714-3.9414 6.1586-6.0428 8.6269-21.146 24.269-30.283 31.363l-7.6988 5.9779 0.52989 4.6926c0.29145 2.5809 0.10233 11.448-0.42026 19.706-4.9028 77.466-46.472 150.02-109.44 191.01-27.996 18.225-59.294 29.977-93.691 35.178-15.413 2.3307-48.273 3.3076-62.309 1.8524z"/>
 </g>
</svg>
