<?xml version="1.0" encoding="UTF-8"?>
<svg width="511.28" height="511.13" version="1.1" viewBox="0 0 511.28 511.13" xmlns="http://www.w3.org/2000/svg" xmlnscc="http://creativecommons.org/ns#" xmlnsdc="http://purl.org/dc/elements/1.1/" xmlnsrdf="http://www.w3.org/1999/02/22-rdf-syntax-ns#">

 <g transform="translate(16.152 5.7598)">
  <path d="m216.52 504.72c-43.678-4.2236-84.149-18.816-120.97-43.617l-12.298-8.2843-6.0224 1.5429c-9.8525 2.5241-19.035-0.023-27.193-7.5429-14.575-13.435-11.303-37.882 6.3573-47.494 6.9446-3.7797 16.403-4.5804 24.061-2.0368 7.1478 2.3741 15.845 10.916 18.218 17.893 1.9936 5.8623 2.1056 14.622 0.25329 19.812l-1.3348 3.74 10.629 7.05c24.563 16.292 55.048 29.13 82.656 34.808 18.763 3.8589 27.503 4.6631 49.973 4.598 24.397-0.0706 37.749-1.7625 59.5-7.5394 82.227-21.839 146.66-87.302 167.93-170.62 4.8692-19.071 6.4434-32.682 6.5081-56.274 0.0655-23.871-0.78797-32.603-5.0827-52-3.3137-14.966-7.4456-27.803-13.479-41.875-5.5394-12.921-6.0335-17.059-2.463-20.629 3.4077-3.4077 7.0968-4.099 11.265-2.1111 2.8374 1.3531 4.1636 3.151 7.2911 9.8849 24.076 51.838 29.377 114 14.533 170.42-11.745 44.643-33.663 82.575-66.949 115.86-22.04 22.04-41.249 35.858-68.055 48.957-25.201 12.314-48.233 19.582-74.691 23.569-15.35 2.3129-46.282 3.2756-60.64 1.8872zm2.9385-66.11c-56.351-5.8903-106.47-36.564-138.99-85.069-7.4524-11.115-16.339-29.44-20.992-43.287-19.618-58.384-10.16-121.83 25.607-171.78 12.597-17.592 36.741-39.646 55.766-50.936 35.954-21.337 78.254-30.974 117.29-26.722 44.99 4.9008 83.971 23.453 115.26 54.855 15.796 15.854 25.978 29.975 35.907 49.8 30.364 60.628 25.66 132.64-12.397 189.79-39.026 58.599-107.33 90.686-177.45 83.357zm9.8929-69.857v-49h-62.86l2.9131 10.873c9.0147 33.646 24.475 63.026 40.264 76.515 5.3654 4.5838 15.752 10.612 18.285 10.612 1.1789 0 1.3984-7.6925 1.3984-49zm27.508 46.648c20.891-9.7284 41.073-42.357 52.438-84.775l2.9131-10.873h-62.86v49c0 38.539 0.26687 48.998 1.25 48.99 0.6875-5e-3 3.5037-1.0592 6.2582-2.342zm-74.347-8.4451c-13.361-16.87-26.273-46.009-33.655-75.953l-2.7735-11.25h-61.834l4.1934 8.0602c15.798 30.366 40.7 55.547 71.13 71.927 7.3492 3.956 23.336 10.956 25.112 10.995 0.45872 0.0101-0.51919-1.6903-2.1731-3.7785zm124.53-1.3889c35.418-15.344 65.243-43.212 83.214-77.754l4.1934-8.0602h-61.834l-2.7735 11.25c-7.366 29.879-20.361 59.169-33.754 76.079-3.0427 3.8417-3.0565 3.9075-0.67312 3.1955 1.3384-0.39983 6.5709-2.5193 11.628-4.71zm-165.07-112.19c-1.6095-15.709-2.5772-32.089-2.5772-43.621s0.96778-27.911 2.5772-43.621l0.65356-6.3791h-66.031l-2.0291 8.25c-3.902 15.865-4.7058 22.997-4.7058 41.75s0.80383 25.885 4.7058 41.75l2.0291 8.25h66.031zm87.377-43.634v-50.013l-66.5 0.52696-1.3378 10c-2.6079 19.494-1.6877 78.875 1.3676 88.25 0.31501 0.96655 7.8976 1.25 33.439 1.25h33.031zm87.852 39.513c0.87897-6.503 1.3516-20.316 1.3516-39.5s-0.47266-32.997-1.3516-39.5l-1.3516-10-66.5-0.52696v100.05l66.5-0.52696zm87.014 1.75c3.9696-17.093 4.6014-22.736 4.618-41.25 0.0166-18.564-0.57343-23.835-4.618-41.25l-2.0321-8.75h-66.11l0.65356 6.3791c1.6095 15.709 2.5772 32.089 2.5772 43.621s-0.96778 27.911-2.5772 43.621l-0.65356 6.3791h66.11zm-255.36-122.5c7.4054-30.038 20.29-59.078 33.754-76.079 3.0427-3.8417 3.0565-3.9075 0.67312-3.1955-5.8115 1.7361-21.521 9.1064-29.656 13.913-28.152 16.635-50.287 39.913-65.186 68.551l-4.1934 8.0602h61.834zm80.494-38.214v-49.464l-4.3865 1.8803c-23.531 10.087-43.452 40.985-55.56 86.176l-2.9131 10.873h62.86zm79.947 38.592c-11.894-44.394-31.672-75.598-54.244-85.58l-5.7022-2.5218v98.975h62.86zm80.571 2.1398c-18.299-34.398-46.929-61.162-82.018-76.672-5.4997-2.4309-11.095-4.7408-12.433-5.1332-2.3854-0.69924-2.3721-0.63574 0.67312 3.2091 13.465 17 26.349 46.041 33.754 76.079l2.7735 11.25h61.896zm-377.52 190.06c-3.7352-1.4578-6.3134-5.5276-10.922-17.24-7.9109-20.105-13-39.701-16.255-62.591-2.1395-15.046-1.6023-52.26 0.996-69 8.6395-55.66 32.778-103.21 72.626-143.05 39.844-39.844 87.314-63.946 143.05-72.636 19.935-3.1076 54.852-3.0998 75 0.01676 15.999 2.4748 36.438 7.6548 50.414 12.777 15.517 5.6863 38.879 17.642 53.287 27.269l13.418 8.9662 4.6949-1.0013c8.9161-1.9016 19.97 2.1665 26.693 9.8235 12.443 14.172 8.6286 36.394-7.8322 45.629-6.988 3.9207-16.468 4.7697-24.281 2.1746-7.4223-2.4653-15.893-10.936-18.358-18.358-2.1417-6.448-1.7294-16.897 0.86463-21.913 1.6609-3.2118 1.6466-3.3361-0.59916-5.1929-4.4457-3.6756-27.421-16.94-37.216-21.486-19.061-8.8469-42.325-15.761-64.585-19.195-16.125-2.4875-52.003-2.4773-67.964 0.01919-39.997 6.2559-76.456 21.625-108.82 45.872-12.474 9.3456-35.656 32.526-44.998 44.996-19.52 26.055-32.907 53.736-40.697 84.151-4.6102 18.001-6.4858 31.211-7.1902 50.643-1.2108 33.401 4.2402 64.658 16.721 95.877 2.7214 6.8076 4.9481 13.438 4.9481 14.734 0 5.0679-8.2235 10.584-13 8.7193z"/>
 </g>
</svg>
